<svg xmlns="http://www.w3.org/2000/svg" width="431.251" height="313.937" viewBox="0 0 431.251 313.937">
  <g id="OBJECTS" transform="translate(-34.375 -83.993)">
    <g id="Group_89" data-name="Group 89">
      <g id="Group_1" data-name="Group 1">
        <path id="Path_27398" data-name="Path 27398" d="M200,0h0C310.455,0,400,89.543,400,200v44.14H0V200C0,89.542,89.542,0,200,0Z" transform="translate(48.812 83.993)" fill="#faf1f7"/>
        <path id="Path_27399" data-name="Path 27399" d="M0,0H400a69.8,69.8,0,0,1-69.8,69.8H69.8A69.8,69.8,0,0,1,0,0Z" transform="translate(48.812 328.132)" fill="#f7d1ea"/>
      </g>
      <g id="Group_8" data-name="Group 8">
        <g id="Group_4" data-name="Group 4" opacity="0.49">
          <g id="Rectangle_3" data-name="Rectangle 3" transform="translate(279.876 189.703)" fill="#fdfdfd" stroke="#87b5ff" stroke-linecap="round" stroke-linejoin="round" stroke-width="1.5">
            <rect width="120.873" height="56.618" rx="7.133" stroke="none"/>
            <rect x="-0.75" y="-0.75" width="122.373" height="58.118" rx="7.883" fill="none"/>
          </g>
          <g id="Group_2" data-name="Group 2" opacity="0.52">
            <rect id="Rectangle_4" data-name="Rectangle 4" width="86.214" height="3.547" transform="translate(297.206 212.465)" fill="#a7bfd9"/>
            <rect id="Rectangle_5" data-name="Rectangle 5" width="86.214" height="3.547" transform="translate(297.206 221.855)" fill="#a7bfd9"/>
            <rect id="Rectangle_6" data-name="Rectangle 6" width="86.214" height="3.547" transform="translate(297.206 231.245)" fill="#a7bfd9"/>
          </g>
          <path id="Path_1" data-name="Path 1" d="M400.749,201.59v-4.753a7.133,7.133,0,0,0-7.133-7.134H287.009a7.134,7.134,0,0,0-7.133,7.134v4.753Z" fill="#a5d9f5"/>
          <g id="Group_3" data-name="Group 3">
            <path id="Path_2" data-name="Path 2" d="M293.269,195.646a3.1,3.1,0,1,1-3.1-3.1A3.1,3.1,0,0,1,293.269,195.646Z" fill="#fefefe"/>
            <path id="Path_3" data-name="Path 3" d="M305.475,195.646a3.1,3.1,0,1,1-3.1-3.1A3.1,3.1,0,0,1,305.475,195.646Z" fill="#fefefe"/>
            <path id="Path_4" data-name="Path 4" d="M317.682,195.646a3.1,3.1,0,1,1-3.1-3.1A3.1,3.1,0,0,1,317.682,195.646Z" fill="#fefefe"/>
          </g>
        </g>
        <g id="Group_7" data-name="Group 7" opacity="0.49">
          <g id="Rectangle_7" data-name="Rectangle 7" transform="translate(86.17 169.829)" fill="#fff" stroke="#a7bfd9" stroke-width="1.104">
            <rect width="141.185" height="94.526" rx="4.165" stroke="none"/>
            <rect x="-0.552" y="-0.552" width="142.289" height="95.63" rx="4.717" fill="none"/>
          </g>
          <path id="Path_5" data-name="Path 5" d="M227.355,178.413v-4.42a4.165,4.165,0,0,0-4.165-4.165H90.335a4.165,4.165,0,0,0-4.165,4.165v4.42Z" fill="#a5d9f5"/>
          <g id="Group_5" data-name="Group 5">
            <path id="Path_6" data-name="Path 6" d="M93.266,174.121a1.709,1.709,0,1,1-1.709-1.709A1.709,1.709,0,0,1,93.266,174.121Z" fill="#fefefe"/>
            <circle id="Ellipse_1" data-name="Ellipse 1" cx="1.709" cy="1.709" r="1.709" transform="translate(96.584 172.412)" fill="#fefefe"/>
            <circle id="Ellipse_2" data-name="Ellipse 2" cx="1.709" cy="1.709" r="1.709" transform="translate(103.321 172.412)" fill="#fefefe"/>
          </g>
          <g id="Group_6" data-name="Group 6">
            <rect id="Rectangle_8" data-name="Rectangle 8" width="107.901" height="2.683" transform="translate(103.321 191.647)" fill="#a7bfd9"/>
            <rect id="Rectangle_9" data-name="Rectangle 9" width="107.901" height="2.683" transform="translate(103.321 202.781)" fill="#a7bfd9"/>
            <rect id="Rectangle_10" data-name="Rectangle 10" width="107.901" height="2.683" transform="translate(103.321 213.914)" fill="#a7bfd9"/>
            <rect id="Rectangle_11" data-name="Rectangle 11" width="107.901" height="2.683" transform="translate(103.321 225.047)" fill="#a7bfd9"/>
            <rect id="Rectangle_12" data-name="Rectangle 12" width="107.901" height="2.683" transform="translate(103.321 236.18)" fill="#a7bfd9"/>
            <rect id="Rectangle_13" data-name="Rectangle 13" width="107.901" height="2.683" transform="translate(103.321 247.314)" fill="#a7bfd9"/>
          </g>
        </g>
      </g>
      <g id="Group_23" data-name="Group 23">
        <g id="Group_15" data-name="Group 15">
          <g id="Group_9" data-name="Group 9">
            <rect id="Rectangle_14" data-name="Rectangle 14" width="47.845" height="26" transform="translate(97.622 317.648)" fill="#2c5b94"/>
            <rect id="Rectangle_15" data-name="Rectangle 15" width="174.339" height="127.709" rx="11.093" transform="translate(34.375 205.329)" fill="#5181ba"/>
            <path id="Rectangle_16" data-name="Rectangle 16" d="M6.786,0H155.609a6.785,6.785,0,0,1,6.785,6.785V108.979a6.785,6.785,0,0,1-6.785,6.785H6.785A6.785,6.785,0,0,1,0,108.979V6.786A6.786,6.786,0,0,1,6.786,0Z" transform="translate(40.347 211.301)" fill="#d4e5f8"/>
            <rect id="Rectangle_17" data-name="Rectangle 17" width="89.04" height="6.5" rx="1.483" transform="translate(77.024 343.648)" fill="#5181ba"/>
          </g>
          <g id="Group_13" data-name="Group 13">
            <path id="Path_7" data-name="Path 7" d="M183.485,221.384H55.6a6.79,6.79,0,0,0-6.791,6.79v86.019a6.79,6.79,0,0,0,6.791,6.79H183.485a6.79,6.79,0,0,0,6.791-6.79V228.174A6.79,6.79,0,0,0,183.485,221.384Z" fill="#a7bfd9"/>
            <g id="Group_12" data-name="Group 12">
              <rect id="Rectangle_18" data-name="Rectangle 18" width="141.464" height="99.6" rx="6.791" transform="translate(50.812 219.384)" fill="#fefefe"/>
              <g id="Group_11" data-name="Group 11">
                <path id="Path_8" data-name="Path 8" d="M192.276,227.648v-1.474a6.79,6.79,0,0,0-6.791-6.79H57.6a6.79,6.79,0,0,0-6.791,6.79v1.474Z" fill="#a5d9f5"/>
                <g id="Group_10" data-name="Group 10">
                  <path id="Path_9" data-name="Path 9" d="M61.041,223.516a1.667,1.667,0,1,1-1.666-1.667A1.666,1.666,0,0,1,61.041,223.516Z" fill="#fefefe"/>
                  <path id="Path_10" data-name="Path 10" d="M68,223.516a1.667,1.667,0,1,1-1.667-1.667A1.667,1.667,0,0,1,68,223.516Z" fill="#fefefe"/>
                  <path id="Path_11" data-name="Path 11" d="M74.958,223.516a1.667,1.667,0,1,1-1.667-1.667A1.666,1.666,0,0,1,74.958,223.516Z" fill="#fefefe"/>
                </g>
              </g>
            </g>
          </g>
          <g id="Group_14" data-name="Group 14">
            <path id="Path_12" data-name="Path 12" d="M162.665,240.324H118.712l-9.483-5.207a4.743,4.743,0,0,0-2.283-.585H80.974a3.1,3.1,0,0,0-3.1,3.1v48.023h85.167l3.341-41.307A3.726,3.726,0,0,0,162.665,240.324Z" fill="#e6b027"/>
            <path id="Path_13" data-name="Path 13" d="M159.634,279.093h-74.8a2.223,2.223,0,0,1-2.166-1.993l-2.621-28.531a1.99,1.99,0,0,1,1.926-2.287H162.5a1.99,1.99,0,0,1,1.925,2.287L161.8,277.1A2.224,2.224,0,0,1,159.634,279.093Z" fill="#fcfffd"/>
            <path id="Path_14" data-name="Path 14" d="M162.379,283.285H82.3a2.381,2.381,0,0,1-2.319-2.133l-2.8-30.547a2.129,2.129,0,0,1,2.061-2.448h86.207A2.131,2.131,0,0,1,167.5,250.6L164.7,281.152A2.379,2.379,0,0,1,162.379,283.285Z" fill="#fcfffd"/>
            <path id="Path_15" data-name="Path 15" d="M164.6,287.193H80.083a2.512,2.512,0,0,1-2.448-2.251l-2.96-32.237a2.247,2.247,0,0,1,2.175-2.584h90.978A2.248,2.248,0,0,1,170,252.705l-2.961,32.237A2.511,2.511,0,0,1,164.6,287.193Z" fill="#fcfffd"/>
            <path id="Path_16" data-name="Path 16" d="M75.946,252.157h92.225a4.121,4.121,0,0,1,4.094,4.591l-5.454,47.528a2.881,2.881,0,0,1-2.861,2.552H80.168a2.881,2.881,0,0,1-2.862-2.552l-5.454-47.528A4.121,4.121,0,0,1,75.946,252.157Z" fill="#fdc22c"/>
          </g>
        </g>
        <g id="Group_22" data-name="Group 22">
          <g id="Group_16" data-name="Group 16">
            <path id="Path_27400" data-name="Path 27400" d="M0,0H47.845V26H0Z" transform="translate(354.533 317.648)" fill="#e86d72"/>
            <path id="Rectangle_20" data-name="Rectangle 20" d="M11.093,0H163.246a11.093,11.093,0,0,1,11.093,11.093V116.616a11.094,11.094,0,0,1-11.094,11.094H11.093A11.093,11.093,0,0,1,0,116.616V11.093A11.093,11.093,0,0,1,11.093,0Z" transform="translate(291.286 205.329)" fill="#d5010b"/>
            <path id="Rectangle_21" data-name="Rectangle 21" d="M6.786,0H155.609a6.785,6.785,0,0,1,6.785,6.785V108.979a6.785,6.785,0,0,1-6.785,6.785H6.785A6.785,6.785,0,0,1,0,108.979V6.786A6.786,6.786,0,0,1,6.786,0Z" transform="translate(297.259 211.301)" fill="#faf1f7"/>
            <rect id="Rectangle_22" data-name="Rectangle 22" width="89.04" height="6.5" rx="1.483" transform="translate(333.936 343.648)" fill="#d5010b"/>
          </g>
          <g id="Group_20" data-name="Group 20">
            <path id="Path_17" data-name="Path 17" d="M440.4,221.384H312.514a6.79,6.79,0,0,0-6.79,6.79v86.019a6.79,6.79,0,0,0,6.79,6.79H440.4a6.791,6.791,0,0,0,6.791-6.79V228.174A6.791,6.791,0,0,0,440.4,221.384Z" fill="#d0a1c0"/>
            <g id="Group_19" data-name="Group 19">
              <rect id="Rectangle_23" data-name="Rectangle 23" width="141.464" height="99.6" rx="6.791" transform="translate(307.724 219.384)" fill="#fefefe"/>
              <g id="Group_18" data-name="Group 18">
                <path id="Path_18" data-name="Path 18" d="M449.188,227.648v-1.474a6.791,6.791,0,0,0-6.791-6.79H314.514a6.79,6.79,0,0,0-6.79,6.79v1.474Z" fill="#f2cacc"/>
                <g id="Group_17" data-name="Group 17">
                  <path id="Path_19" data-name="Path 19" d="M317.953,223.516a1.667,1.667,0,1,1-1.667-1.667A1.666,1.666,0,0,1,317.953,223.516Z" fill="#f2cacc"/>
                  <path id="Path_20" data-name="Path 20" d="M324.911,223.516a1.667,1.667,0,1,1-1.666-1.667A1.666,1.666,0,0,1,324.911,223.516Z" fill="#f2cacc"/>
                  <path id="Path_21" data-name="Path 21" d="M331.87,223.516a1.667,1.667,0,1,1-1.667-1.667A1.666,1.666,0,0,1,331.87,223.516Z" fill="#f2cacc"/>
                </g>
              </g>
            </g>
          </g>
          <g id="Group_21" data-name="Group 21">
            <path id="Path_22" data-name="Path 22" d="M419.577,240.324H375.623l-9.482-5.207a4.746,4.746,0,0,0-2.283-.585H337.885a3.1,3.1,0,0,0-3.1,3.1v48.023h85.166l3.341-41.307A3.725,3.725,0,0,0,419.577,240.324Z" fill="#d5010b"/>
            <path id="Path_23" data-name="Path 23" d="M416.546,279.093h-74.8a2.224,2.224,0,0,1-2.167-1.993l-2.62-28.531a1.99,1.99,0,0,1,1.925-2.287h80.52a1.99,1.99,0,0,1,1.925,2.287l-2.62,28.531A2.224,2.224,0,0,1,416.546,279.093Z" fill="#fcfffd"/>
            <path id="Path_24" data-name="Path 24" d="M419.291,283.285H339.21a2.379,2.379,0,0,1-2.319-2.133l-2.8-30.547a2.129,2.129,0,0,1,2.061-2.448h86.207a2.129,2.129,0,0,1,2.061,2.448l-2.805,30.547A2.38,2.38,0,0,1,419.291,283.285Z" fill="#fcfffd"/>
            <path id="Path_25" data-name="Path 25" d="M421.506,287.193H336.994a2.511,2.511,0,0,1-2.447-2.251l-2.961-32.237a2.248,2.248,0,0,1,2.175-2.584H424.74a2.248,2.248,0,0,1,2.175,2.584l-2.961,32.237A2.512,2.512,0,0,1,421.506,287.193Z" fill="#fcfffd"/>
            <path id="Path_26" data-name="Path 26" d="M332.858,252.157h92.225a4.121,4.121,0,0,1,4.094,4.591l-5.454,47.528a2.881,2.881,0,0,1-2.862,2.552H337.079a2.881,2.881,0,0,1-2.861-2.552l-5.455-47.528A4.122,4.122,0,0,1,332.858,252.157Z" fill="#d5010b"/>
          </g>
        </g>
      </g>
      <g id="Group_29" data-name="Group 29">
        <g id="Group_24" data-name="Group 24">
          <rect id="Rectangle_24" data-name="Rectangle 24" width="44.127" height="60.141" transform="matrix(0.446, -0.895, 0.895, 0.446, 94.544, 216.762)" fill="#fee79b"/>
          <rect id="Rectangle_25" data-name="Rectangle 25" width="34.113" height="1.892" transform="translate(101.706 214.737) rotate(-63.508)" fill="#d4b498"/>
          <rect id="Rectangle_26" data-name="Rectangle 26" width="34.113" height="1.892" transform="matrix(0.446, -0.895, 0.895, 0.446, 105.353, 216.555)" fill="#d4b498"/>
          <rect id="Rectangle_27" data-name="Rectangle 27" width="22.677" height="1.892" transform="translate(109 218.372) rotate(-63.508)" fill="#d4b498"/>
          <rect id="Rectangle_28" data-name="Rectangle 28" width="34.113" height="1.892" transform="matrix(0.446, -0.895, 0.895, 0.446, 112.647, 220.19)" fill="#d4b498"/>
          <rect id="Rectangle_29" data-name="Rectangle 29" width="34.113" height="1.892" transform="matrix(0.446, -0.895, 0.895, 0.446, 116.294, 222.007)" fill="#d4b498"/>
          <rect id="Rectangle_30" data-name="Rectangle 30" width="22.097" height="1.892" transform="matrix(0.446, -0.895, 0.895, 0.446, 119.94, 223.825)" fill="#d4b498"/>
          <rect id="Rectangle_31" data-name="Rectangle 31" width="34.113" height="1.892" transform="matrix(0.446, -0.895, 0.895, 0.446, 123.587, 225.643)" fill="#d4b498"/>
          <rect id="Rectangle_32" data-name="Rectangle 32" width="22.097" height="1.892" transform="matrix(0.446, -0.895, 0.895, 0.446, 127.234, 227.46)" fill="#d4b498"/>
          <rect id="Rectangle_33" data-name="Rectangle 33" width="34.113" height="1.892" transform="translate(130.881 229.278) rotate(-63.508)" fill="#d4b498"/>
          <rect id="Rectangle_34" data-name="Rectangle 34" width="34.113" height="1.892" transform="matrix(0.446, -0.895, 0.895, 0.446, 134.528, 231.095)" fill="#d4b498"/>
          <rect id="Rectangle_35" data-name="Rectangle 35" width="23.205" height="1.892" transform="translate(138.174 232.913) rotate(-63.508)" fill="#d4b498"/>
          <rect id="Rectangle_36" data-name="Rectangle 36" width="34.113" height="1.892" transform="matrix(0.446, -0.895, 0.895, 0.446, 141.821, 234.73)" fill="#d4b498"/>
          <rect id="Rectangle_37" data-name="Rectangle 37" width="23.205" height="1.892" transform="translate(145.468 236.548) rotate(-63.508)" fill="#d4b498"/>
        </g>
        <g id="Group_25" data-name="Group 25">
          <rect id="Rectangle_38" data-name="Rectangle 38" width="44.127" height="60.141" transform="matrix(0.88, -0.475, 0.475, 0.88, 145.869, 133.84)" fill="#fee79b"/>
          <rect id="Rectangle_39" data-name="Rectangle 39" width="34.113" height="1.892" transform="translate(152.89 136.308) rotate(-28.353)" fill="#d4b498"/>
          <rect id="Rectangle_40" data-name="Rectangle 40" width="34.113" height="1.892" transform="matrix(0.88, -0.475, 0.475, 0.88, 154.826, 139.894)" fill="#d4b498"/>
          <rect id="Rectangle_41" data-name="Rectangle 41" width="22.677" height="1.892" transform="translate(156.761 143.48) rotate(-28.353)" fill="#d4b498"/>
          <rect id="Rectangle_42" data-name="Rectangle 42" width="34.113" height="1.892" transform="translate(158.696 147.066) rotate(-28.353)" fill="#d4b498"/>
          <rect id="Rectangle_43" data-name="Rectangle 43" width="34.113" height="1.892" transform="matrix(0.88, -0.475, 0.475, 0.88, 160.631, 150.652)" fill="#d4b498"/>
          <rect id="Rectangle_44" data-name="Rectangle 44" width="22.097" height="1.892" transform="translate(162.566 154.238) rotate(-28.353)" fill="#d4b498"/>
          <rect id="Rectangle_45" data-name="Rectangle 45" width="34.113" height="1.892" transform="matrix(0.88, -0.475, 0.475, 0.88, 164.501, 157.823)" fill="#d4b498"/>
          <rect id="Rectangle_46" data-name="Rectangle 46" width="22.097" height="1.892" transform="translate(166.436 161.409) rotate(-28.353)" fill="#d4b498"/>
          <rect id="Rectangle_47" data-name="Rectangle 47" width="34.113" height="1.892" transform="matrix(0.88, -0.475, 0.475, 0.88, 168.371, 164.995)" fill="#d4b498"/>
          <rect id="Rectangle_48" data-name="Rectangle 48" width="34.113" height="1.892" transform="translate(170.306 168.581) rotate(-28.353)" fill="#d4b498"/>
          <rect id="Rectangle_49" data-name="Rectangle 49" width="23.205" height="1.892" transform="translate(172.241 172.167) rotate(-28.353)" fill="#d4b498"/>
          <rect id="Rectangle_50" data-name="Rectangle 50" width="34.113" height="1.892" transform="matrix(0.88, -0.475, 0.475, 0.88, 174.176, 175.753)" fill="#d4b498"/>
          <rect id="Rectangle_51" data-name="Rectangle 51" width="23.205" height="1.892" transform="translate(176.111 179.339) rotate(-28.353)" fill="#d4b498"/>
        </g>
        <g id="Group_26" data-name="Group 26">
          <rect id="Rectangle_52" data-name="Rectangle 52" width="44.127" height="60.14" transform="translate(235.578 95.596) rotate(6.803)" fill="#fee79b"/>
          <rect id="Rectangle_53" data-name="Rectangle 53" width="34.113" height="1.892" transform="translate(239.897 101.657) rotate(6.803)" fill="#d4b498"/>
          <rect id="Rectangle_54" data-name="Rectangle 54" width="34.113" height="1.892" transform="translate(239.415 105.703) rotate(6.803)" fill="#d4b498"/>
          <rect id="Rectangle_55" data-name="Rectangle 55" width="22.677" height="1.892" transform="translate(238.932 109.749) rotate(6.803)" fill="#d4b498"/>
          <rect id="Rectangle_56" data-name="Rectangle 56" width="34.113" height="1.892" transform="matrix(0.993, 0.118, -0.118, 0.993, 238.449, 113.795)" fill="#d4b498"/>
          <rect id="Rectangle_57" data-name="Rectangle 57" width="34.113" height="1.892" transform="translate(237.967 117.841) rotate(6.803)" fill="#d4b498"/>
          <rect id="Rectangle_58" data-name="Rectangle 58" width="22.097" height="1.892" transform="translate(237.484 121.887) rotate(6.803)" fill="#d4b498"/>
          <rect id="Rectangle_59" data-name="Rectangle 59" width="34.113" height="1.892" transform="matrix(0.993, 0.118, -0.118, 0.993, 237.001, 125.933)" fill="#d4b498"/>
          <rect id="Rectangle_60" data-name="Rectangle 60" width="22.097" height="1.892" transform="translate(236.519 129.979) rotate(6.803)" fill="#d4b498"/>
          <rect id="Rectangle_61" data-name="Rectangle 61" width="34.113" height="1.892" transform="translate(236.036 134.025) rotate(6.803)" fill="#d4b498"/>
          <rect id="Rectangle_62" data-name="Rectangle 62" width="34.113" height="1.892" transform="matrix(0.993, 0.118, -0.118, 0.993, 235.553, 138.071)" fill="#d4b498"/>
          <rect id="Rectangle_63" data-name="Rectangle 63" width="23.205" height="1.892" transform="translate(235.071 142.117) rotate(6.803)" fill="#d4b498"/>
          <rect id="Rectangle_64" data-name="Rectangle 64" width="34.113" height="1.892" transform="translate(234.588 146.163) rotate(6.803)" fill="#d4b498"/>
          <rect id="Rectangle_65" data-name="Rectangle 65" width="23.205" height="1.892" transform="matrix(0.993, 0.118, -0.118, 0.993, 234.106, 150.209)" fill="#d4b498"/>
        </g>
        <g id="Group_27" data-name="Group 27">
          <rect id="Rectangle_66" data-name="Rectangle 66" width="44.127" height="60.141" transform="matrix(0.744, 0.669, -0.669, 0.744, 330.944, 115.983)" fill="#fee79b"/>
          <rect id="Rectangle_67" data-name="Rectangle 67" width="34.113" height="1.892" transform="matrix(0.744, 0.669, -0.669, 0.744, 330.985, 123.425)" fill="#d4b498"/>
          <rect id="Rectangle_68" data-name="Rectangle 68" width="34.113" height="1.892" transform="translate(328.261 126.455) rotate(41.958)" fill="#d4b498"/>
          <rect id="Rectangle_69" data-name="Rectangle 69" width="22.677" height="1.892" transform="translate(325.537 129.485) rotate(41.958)" fill="#d4b498"/>
          <rect id="Rectangle_70" data-name="Rectangle 70" width="34.113" height="1.892" transform="translate(322.813 132.515) rotate(41.958)" fill="#d4b498"/>
          <rect id="Rectangle_71" data-name="Rectangle 71" width="34.113" height="1.892" transform="matrix(0.744, 0.669, -0.669, 0.744, 320.088, 135.545)" fill="#d4b498"/>
          <rect id="Rectangle_72" data-name="Rectangle 72" width="22.097" height="1.892" transform="matrix(0.744, 0.669, -0.669, 0.744, 317.364, 138.575)" fill="#d4b498"/>
          <rect id="Rectangle_73" data-name="Rectangle 73" width="34.113" height="1.892" transform="translate(314.64 141.605) rotate(41.958)" fill="#d4b498"/>
          <rect id="Rectangle_74" data-name="Rectangle 74" width="22.097" height="1.892" transform="matrix(0.744, 0.669, -0.669, 0.744, 311.916, 144.635)" fill="#d4b498"/>
          <rect id="Rectangle_75" data-name="Rectangle 75" width="34.113" height="1.892" transform="translate(309.191 147.665) rotate(41.958)" fill="#d4b498"/>
          <rect id="Rectangle_76" data-name="Rectangle 76" width="34.113" height="1.892" transform="translate(306.467 150.696) rotate(41.958)" fill="#d4b498"/>
          <rect id="Rectangle_77" data-name="Rectangle 77" width="23.205" height="1.892" transform="matrix(0.744, 0.669, -0.669, 0.744, 303.743, 153.726)" fill="#d4b498"/>
          <rect id="Rectangle_78" data-name="Rectangle 78" width="34.113" height="1.892" transform="translate(301.019 156.756) rotate(41.958)" fill="#d4b498"/>
          <rect id="Rectangle_79" data-name="Rectangle 79" width="23.205" height="1.892" transform="matrix(0.744, 0.669, -0.669, 0.744, 298.294, 159.786)" fill="#d4b498"/>
        </g>
        <g id="Group_28" data-name="Group 28">
          <rect id="Rectangle_80" data-name="Rectangle 80" width="44.127" height="60.141" transform="translate(390.577 178.774) rotate(71.492)" fill="#fee79b"/>
          <rect id="Rectangle_81" data-name="Rectangle 81" width="34.113" height="1.892" transform="translate(386.945 185.27) rotate(71.492)" fill="#d4b498"/>
          <rect id="Rectangle_82" data-name="Rectangle 82" width="34.113" height="1.892" transform="translate(383.081 186.563) rotate(71.492)" fill="#d4b498"/>
          <rect id="Rectangle_83" data-name="Rectangle 83" width="22.677" height="1.892" transform="translate(379.217 187.857) rotate(71.492)" fill="#d4b498"/>
          <rect id="Rectangle_84" data-name="Rectangle 84" width="34.113" height="1.892" transform="translate(375.353 189.15) rotate(71.492)" fill="#d4b498"/>
          <rect id="Rectangle_85" data-name="Rectangle 85" width="34.113" height="1.892" transform="translate(371.489 190.444) rotate(71.492)" fill="#d4b498"/>
          <rect id="Rectangle_86" data-name="Rectangle 86" width="22.097" height="1.892" transform="matrix(0.317, 0.948, -0.948, 0.317, 367.625, 191.737)" fill="#d4b498"/>
          <rect id="Rectangle_87" data-name="Rectangle 87" width="34.113" height="1.892" transform="translate(363.761 193.03) rotate(71.492)" fill="#d4b498"/>
          <rect id="Rectangle_88" data-name="Rectangle 88" width="22.097" height="1.892" transform="translate(359.897 194.324) rotate(71.492)" fill="#d4b498"/>
          <rect id="Rectangle_89" data-name="Rectangle 89" width="34.113" height="1.892" transform="translate(356.033 195.617) rotate(71.492)" fill="#d4b498"/>
          <rect id="Rectangle_90" data-name="Rectangle 90" width="34.113" height="1.892" transform="translate(352.169 196.911) rotate(71.492)" fill="#d4b498"/>
          <rect id="Rectangle_91" data-name="Rectangle 91" width="23.205" height="1.892" transform="translate(348.306 198.204) rotate(71.492)" fill="#d4b498"/>
          <rect id="Rectangle_92" data-name="Rectangle 92" width="34.113" height="1.892" transform="translate(344.442 199.498) rotate(71.492)" fill="#d4b498"/>
          <rect id="Rectangle_93" data-name="Rectangle 93" width="23.205" height="1.892" transform="translate(340.578 200.791) rotate(71.492)" fill="#d4b498"/>
        </g>
      </g>
      <g id="Group_30" data-name="Group 30">
        <path id="Path_27" data-name="Path 27" d="M179.151,217.114c12.153-23.868,38.746-40.427,69.6-40.427,31.171,0,58,16.9,69.971,41.172" fill="none" stroke="#623d3f" stroke-width="6.398" stroke-dasharray="4"/>
        <path id="Path_29" data-name="Path 29" d="M328.386,211.768,309.053,221.78l16.2,7.609Z" fill="#d5010b"/>
      </g>
      <g id="Group_60" data-name="Group 60">
        <g id="Group_58" data-name="Group 58">
          <g id="Group_33" data-name="Group 33">
            <g id="Group_31" data-name="Group 31">
              <rect id="Rectangle_94" data-name="Rectangle 94" width="2.55" height="26.026" transform="translate(338.66 356.475) rotate(-176.758)" fill="#666488"/>
              <rect id="Rectangle_95" data-name="Rectangle 95" width="2.748" height="26.026" transform="matrix(-0.998, -0.057, 0.057, -0.998, 337.486, 356.408)" fill="#9692c6"/>
            </g>
            <g id="Group_32" data-name="Group 32">
              <path id="Path_30" data-name="Path 30" d="M324.51,334.26l.411-24.79c.913-2.288,3.267-2.427,4.328-2.427h19.9a2.072,2.072,0,0,1,2.061,2.29l-2.744,25.992a2.076,2.076,0,0,1-1.266,1.7l-2.765.5,1.162-.977h-19.03A2.072,2.072,0,0,1,324.51,334.26Z" fill="#ce6a77"/>
              <path id="Path_31" data-name="Path 31" d="M324.22,337.526h19.9a2.073,2.073,0,0,0,2.061-1.854l2.677-25.363a2.072,2.072,0,0,0-2.061-2.289H326.9a2.073,2.073,0,0,0-2.061,1.854l-2.677,25.362A2.072,2.072,0,0,0,324.22,337.526Z" fill="#bd4d5c"/>
            </g>
          </g>
          <path id="Path_32" data-name="Path 32" d="M317.63,353.59v6.859l-16.755-2.82v-4.08Z" fill="#bd4d5c"/>
          <ellipse id="Ellipse_3" data-name="Ellipse 3" cx="36.91" cy="7.597" rx="36.91" ry="7.597" transform="translate(274.668 380.455)" fill="#d2dce0"/>
          <g id="Group_52" data-name="Group 52">
            <g id="Group_35" data-name="Group 35">
              <path id="Path_33" data-name="Path 33" d="M322.983,337.159c-.366-.056-.516-.063-.756-.089a54.753,54.753,0,0,0-17.855,1.676c-4.9,1.262-13.209,5.473-17.072,7.491-3.422,1.788-3.353,6.923-3.767,13.778-.127,2.1.643,16.759.485,23.094.639-.118,1.694.007,2.736-.162.6-.1,2.45-9.1,3.91-12.852a20.872,20.872,0,0,0,.7-10.838c-.415-1.936-.734-4.541,1.629-5.1,11.256-2.658,19.232-5.258,27.828-5.9C321.658,344.088,322.17,341.337,322.983,337.159Z" fill="#de856c"/>
              <g id="Group_34" data-name="Group 34">
                <path id="Path_34" data-name="Path 34" d="M277.638,385.915l9.639-.027a.824.824,0,0,0,.824-.823l0-1.725c-.024-.726-.089-1.535-.786-1.67,0,0-2.321.213-3.3.43-1.276.282-1.906.449-3.538.815-2.42.544-3.43.893-3.632,1.62C276.567,385.538,277.01,385.8,277.638,385.915Z" fill="#752056"/>
              </g>
            </g>
            <g id="Group_37" data-name="Group 37">
              <path id="Path_35" data-name="Path 35" d="M328.738,340.172c-.366-.057-.516-.063-.756-.089a54.772,54.772,0,0,0-17.854,1.676c-4.9,1.262-13.21,5.473-17.073,7.491-3.421,1.788-3.353,6.923-3.767,13.778-.127,2.1.643,16.759.485,23.094.639-.118,1.694.007,2.736-.162.6-.1,2.45-9.1,3.91-12.852a20.872,20.872,0,0,0,.7-10.838c-.415-1.936-.734-4.541,1.629-5.1,11.256-2.657,19.232-5.258,27.828-5.9C327.414,347.1,327.925,344.35,328.738,340.172Z" fill="#ffb39f"/>
              <g id="Group_36" data-name="Group 36">
                <path id="Path_36" data-name="Path 36" d="M283.513,389.435l9.626-.5a.824.824,0,0,0,.782-.863l-.081-1.722c-.059-.724-.164-1.53-.867-1.63,0,0-2.308.328-3.277.592-1.261.345-1.881.542-3.493.989-2.391.662-3.382,1.06-3.549,1.8C282.424,389.111,282.879,389.352,283.513,389.435Z" fill="#9f2b74"/>
              </g>
            </g>
            <g id="Group_38" data-name="Group 38">
              <path id="Path_37" data-name="Path 37" d="M317.318,330.728s-1.966,6.734-5.621,8.185c0,0,20.607,8.078,21.709,5.906,0,0-3-12.77-3.452-20.08Z" fill="#9f3a79"/>
              <path id="Path_38" data-name="Path 38" d="M329.889,338.57c6.526,4.246,8.234,17.861-12.259,15.02,0,0-7.98,1.011-13.5,5.084a23.852,23.852,0,0,1-8.841-16.57,38.252,38.252,0,0,1,16.345-4.543C323.92,337.009,329.889,338.57,329.889,338.57Z" fill="#9f3a79"/>
            </g>
            <g id="Group_41" data-name="Group 41">
              <path id="Path_39" data-name="Path 39" d="M318.593,309.44s.6,15.215-.576,18.17c-.766,1.933-14.331,5.858-18.084,7.037" fill="none" stroke="#de856c" stroke-width="7.176"/>
              <g id="Group_40" data-name="Group 40">
                <g id="Group_39" data-name="Group 39">
                  <path id="Path_40" data-name="Path 40" d="M295.712,335.135s-1.878.392-4.154,3.448" fill="none" stroke="#de856c" stroke-linecap="round" stroke-linejoin="round" stroke-width="1.7"/>
                  <path id="Path_41" data-name="Path 41" d="M296.673,334.049a7.29,7.29,0,0,0-5.221,3.257" fill="none" stroke="#de856c" stroke-linecap="round" stroke-linejoin="round" stroke-width="1.7"/>
                  <path id="Path_42" data-name="Path 42" d="M297.182,336.1a13.4,13.4,0,0,0-5.4,3.235" fill="none" stroke="#de856c" stroke-linecap="round" stroke-linejoin="round" stroke-width="1.7"/>
                  <path id="Path_43" data-name="Path 43" d="M298.26,336.514c-1.181.218-3.121.915-5.983,3.585" fill="none" stroke="#de856c" stroke-linecap="round" stroke-linejoin="round" stroke-width="1.7"/>
                </g>
                <path id="Path_44" data-name="Path 44" d="M301.4,336.1c1.278-1.145.415-4.052.415-4.052a17.2,17.2,0,0,0-7.957,2.088l.726,1.675a4.244,4.244,0,0,0,1.4,1.927C296.915,338.346,300.2,337.176,301.4,336.1Z" fill="#de856c"/>
                <path id="Path_45" data-name="Path 45" d="M296.995,338.7s3.649-1.728,4.126-2.947" fill="none" stroke="#de856c" stroke-linecap="round" stroke-linejoin="round" stroke-width="1.7"/>
              </g>
            </g>
            <path id="Path_46" data-name="Path 46" d="M309.354,289.006s1.85,14.675,5.127,16.32c6.989,3.508,16.694,1.071,19.166-5.274.825-2.119-5.142-6.175-5.988-10.507C326.71,284.684,309.354,289.006,309.354,289.006Z" fill="#6278bf"/>
            <g id="Group_42" data-name="Group 42">
              <path id="Path_47" data-name="Path 47" d="M319.094,304.647l9.111.5a2.875,2.875,0,0,1,1.994.981c2.635,2.987,2.317,5.876,1.778,9.216-.564,3.5-2.211,6.348-2.032,10.07a22.143,22.143,0,0,0,2.269,8.011s-2.435,1.368-8.618,1.026-9.028-1.966-9.028-1.966l-.311-20.677a22.931,22.931,0,0,1,2.333-5.915A2.793,2.793,0,0,1,319.094,304.647Z" fill="#7460c9"/>
              <path id="Path_48" data-name="Path 48" d="M322.743,320.04a3.724,3.724,0,0,1-3.3-2.037,3.4,3.4,0,0,0,3.291,2.825,3.578,3.578,0,0,0,3.394-2.586A4.016,4.016,0,0,1,322.743,320.04Z" fill="#5c44a8"/>
              <path id="Path_49" data-name="Path 49" d="M314.872,310.321l-2.473,4.514a1.327,1.327,0,0,0,.06,1.381l2.682,4.2,3.559-2.869Z" fill="#7460c9"/>
            </g>
            <g id="Group_46" data-name="Group 46">
              <g id="Group_43" data-name="Group 43">
                <path id="Path_50" data-name="Path 50" d="M325.308,305.418l-2.122-6.5-5.762,1.881,2.134,6.5Z" fill="#de856c"/>
                <path id="Path_51" data-name="Path 51" d="M325.308,305.418c.178.546-.964,1.41-2.552,1.928s-3.019.495-3.2-.051.964-1.41,2.552-1.928S325.129,304.871,325.308,305.418Z" fill="#de856c"/>
              </g>
              <g id="Group_45" data-name="Group 45">
                <path id="Path_52" data-name="Path 52" d="M313.5,301.373c1.49,2.659,4.3,3.441,9.14.364a6.291,6.291,0,0,0,3.18-4.286l-1.25-11.514a2.592,2.592,0,0,0-3.329-1.876l-11.586,3.782a2.592,2.592,0,0,0-1.6,3.443S313.5,301.364,313.5,301.373Z" fill="#ffac91"/>
                <g id="Group_44" data-name="Group 44">
                  <path id="Path_53" data-name="Path 53" d="M321.924,281.472s6.834.925,6.444,10.826c-.077,1.971-2.53,4.82-2.53,4.82Z" fill="#6278bf"/>
                  <path id="Path_54" data-name="Path 54" d="M309.655,287.843s7.634,4.646,14.924.031c0,0,4.072-.852.8-5.246s-11.466-4.147-13.5.344C310.221,286.623,309.655,287.843,309.655,287.843Z" fill="#6278bf"/>
                  <path id="Path_55" data-name="Path 55" d="M306.465,289.382c.109-3.688,2.278-6.594,7.327-8.657,0,0,4.973,12.007-3.17,13.1C308.117,294.157,306.391,291.909,306.465,289.382Z" fill="#6278bf"/>
                  <path id="Path_56" data-name="Path 56" d="M325.787,290.225a2.4,2.4,0,0,0-2.815-1.8c-1.062.3.733,5.325,2.018,4.478A2.366,2.366,0,0,0,325.787,290.225Z" fill="#ffac91"/>
                  <path id="Path_57" data-name="Path 57" d="M319.912,288.831l2.529-1.318,1.173,2.622c.755,1.983.383,2.023.358,2.031C322.579,292.652,320.329,289.9,319.912,288.831Z" fill="#6278bf"/>
                </g>
              </g>
            </g>
            <g id="Group_48" data-name="Group 48">
              <path id="Path_58" data-name="Path 58" d="M272.08,322.906l1.552-1.215,2.66-.115,22.566-.972,6.708,20.144-25.226,1.087-6.331-19.012Z" fill="#8147b5"/>
              <path id="Path_59" data-name="Path 59" d="M278.788,343.05l25.226-1.087-6.708-20.144-25.226,1.087Z" fill="#a06dce"/>
              <g id="Group_47" data-name="Group 47">
                <path id="Path_60" data-name="Path 60" d="M285.776,328.294s1.005.024,1.265,1.386" fill="none" stroke="#c7f5ec" stroke-linecap="round" stroke-linejoin="round" stroke-width="0.401"/>
                <path id="Path_61" data-name="Path 61" d="M285.768,330.761a1.767,1.767,0,0,0,1.747,1.4,1.236,1.236,0,0,0,1.19-1.519,1.768,1.768,0,0,0-1.748-1.4A1.235,1.235,0,0,0,285.768,330.761Z" fill="#c7f5ec"/>
                <path id="Path_62" data-name="Path 62" d="M286.374,333.369a1.535,1.535,0,0,0-1.185-1.177,2.188,2.188,0,0,1,2.047-1.491,3.165,3.165,0,0,1,3.129,2.506,2.213,2.213,0,0,1-2.131,2.72,3.128,3.128,0,0,1-2.58-1.3A1.06,1.06,0,0,0,286.374,333.369Z" fill="#c7f5ec"/>
              </g>
              <rect id="Rectangle_96" data-name="Rectangle 96" width="16.074" height="2.835" transform="matrix(-0.999, 0.043, -0.043, -0.999, 319.263, 341.306)" fill="#8147b5"/>
            </g>
            <g id="Group_51" data-name="Group 51">
              <g id="Group_50" data-name="Group 50">
                <path id="Path_63" data-name="Path 63" d="M329.265,309.7l-3.856,20.08s-17.753,4.368-20.225,5.116" fill="none" stroke="#ffac91" stroke-linecap="round" stroke-linejoin="round" stroke-width="7.03"/>
                <g id="Group_49" data-name="Group 49">
                  <path id="Path_64" data-name="Path 64" d="M301.187,330.834a4.481,4.481,0,0,1,2.557,2.57" fill="none" stroke="#ffac91" stroke-linecap="round" stroke-linejoin="round" stroke-width="2.562"/>
                  <path id="Path_65" data-name="Path 65" d="M304.792,332.814a2.239,2.239,0,0,1,1.427,1.2c.241.512.52,1.935-.065,2.3a7.217,7.217,0,0,1-5.269.776c-1.141-.161-1.548-.238-1.377-1.314a13.966,13.966,0,0,1,.423-1.892,1.6,1.6,0,0,1,1.3-1.052A8.518,8.518,0,0,1,304.792,332.814Z" fill="#ffac91"/>
                  <path id="Path_66" data-name="Path 66" d="M301.775,333.568a31.039,31.039,0,0,1-5.713-.061" fill="none" stroke="#ffac91" stroke-linecap="round" stroke-linejoin="round" stroke-width="1.644"/>
                  <path id="Path_67" data-name="Path 67" d="M300.918,334.749a16.307,16.307,0,0,1-6.319-.551" fill="none" stroke="#ffac91" stroke-linecap="round" stroke-linejoin="round" stroke-width="1.644"/>
                  <path id="Path_68" data-name="Path 68" d="M300.19,336.04a18.83,18.83,0,0,1-5.654-1.046" fill="none" stroke="#ffac91" stroke-linecap="round" stroke-linejoin="round" stroke-width="1.644"/>
                  <path id="Path_69" data-name="Path 69" d="M302,335.865a11.249,11.249,0,0,1-6.39-.388" fill="none" stroke="#ffac91" stroke-linecap="round" stroke-linejoin="round" stroke-width="1.644"/>
                </g>
              </g>
            </g>
          </g>
          <g id="Group_56" data-name="Group 56">
            <g id="Group_53" data-name="Group 53">
              <path id="Path_70" data-name="Path 70" d="M313.088,388.276a2.2,2.2,0,1,0,2.2-2.2A2.2,2.2,0,0,0,313.088,388.276Z" fill="#666488"/>
              <line id="Line_1" data-name="Line 1" y2="4.774" transform="translate(315.238 383.502)" fill="none" stroke="#666488" stroke-linecap="round" stroke-linejoin="round" stroke-width="2.352"/>
            </g>
            <g id="Group_54" data-name="Group 54">
              <circle id="Ellipse_4" data-name="Ellipse 4" cx="2.202" cy="2.202" r="2.202" transform="translate(335.49 386.074)" fill="#666488"/>
              <line id="Line_2" data-name="Line 2" y2="4.774" transform="translate(337.641 383.502)" fill="none" stroke="#666488" stroke-linecap="round" stroke-linejoin="round" stroke-width="2.352"/>
            </g>
            <line id="Line_3" data-name="Line 3" y2="26.007" transform="translate(326.547 356.431)" fill="none" stroke="#9692c6" stroke-linecap="round" stroke-linejoin="round" stroke-width="3.333"/>
            <line id="Line_4" data-name="Line 4" x2="22.403" transform="translate(315.29 383.502)" fill="none" stroke="#9692c6" stroke-linecap="round" stroke-linejoin="round" stroke-width="2.352"/>
            <g id="Group_55" data-name="Group 55">
              <path id="Path_71" data-name="Path 71" d="M324.345,388.276a2.2,2.2,0,1,0,2.2-2.2A2.2,2.2,0,0,0,324.345,388.276Z" fill="#9692c6"/>
              <line id="Line_5" data-name="Line 5" y2="4.55" transform="translate(326.547 383.502)" fill="none" stroke="#9692c6" stroke-linecap="round" stroke-linejoin="round" stroke-width="2.352"/>
            </g>
          </g>
          <g id="Group_57" data-name="Group 57">
            <path id="Path_72" data-name="Path 72" d="M317.63,360.448l28.121-1.176V353.59H317.63Z" fill="#ce6a77"/>
            <path id="Rectangle_97" data-name="Rectangle 97" d="M5.009,0h10.7a5.008,5.008,0,0,1,5.008,5.008V16.822a5.008,5.008,0,0,1-5.008,5.008H5.009A5.009,5.009,0,0,1,0,16.822V5.009A5.009,5.009,0,0,1,5.009,0Z" transform="translate(344.619 357.912) rotate(180)" fill="none" stroke="#ce6a77" stroke-width="2.352"/>
          </g>
        </g>
        <g id="Group_59" data-name="Group 59" opacity="0.64">
          <path id="Path_73" data-name="Path 73" d="M288.242,316.05l-7.667-6.18,5.375-3.18Z" fill="#db698b"/>
          <circle id="Ellipse_5" data-name="Ellipse 5" cx="13.252" cy="13.252" r="13.252" transform="translate(263.723 284.64)" fill="#db698b"/>
          <path id="Path_74" data-name="Path 74" d="M284.2,295.689a3.616,3.616,0,0,0-7.222,0,3.615,3.615,0,0,0-7.221,0s-.336,4.259,7.221,9.266C284.533,299.948,284.2,295.689,284.2,295.689Z" fill="#fff"/>
        </g>
      </g>
      <g id="Group_88" data-name="Group 88">
        <g id="Group_83" data-name="Group 83" transform="translate(0 -20.682)" opacity="0.64">
          <ellipse id="Ellipse_8" data-name="Ellipse 8" cx="23.369" cy="23.886" rx="23.369" ry="23.886" transform="translate(173.519 349.486)" fill="#d5010b"/>
          <g id="Group_82" data-name="Group 82" transform="translate(180.774 359.222)">
            <rect id="Rectangle_99" data-name="Rectangle 99" width="10.24" height="16.592" rx="0.978" transform="translate(0 8.181)" fill="#fff"/>
            <path id="Path_121" data-name="Path 121" d="M202.723,362.7h-7.276a1.423,1.423,0,0,1-1.407-1.439v-1.27l-.007-.18-.213-2.719a2.234,2.234,0,0,0-2.206-2.083h0a2.238,2.238,0,0,0-2.215,2.263v2.6a2.3,2.3,0,0,1-.353,1.224l-.614,1.04a4.533,4.533,0,0,1-1.2,1.337c-.785.586-1.927,1.443-1.927,1.443a1.9,1.9,0,0,0-.737,1.506v7.962a1.9,1.9,0,0,0,.742,1.51l1.432,1.09a1.82,1.82,0,0,0,1.1.372h12.1a1.834,1.834,0,0,0,1.047-.333,2.234,2.234,0,0,0,1.055-2.5,1.967,1.967,0,0,1,.45-1.765,2.234,2.234,0,0,0,.527-1.841,2.151,2.151,0,0,1,.372-1.64,2.431,2.431,0,0,0,.46-2.07,1.921,1.921,0,0,1,.36-1.518A1.886,1.886,0,0,0,202.723,362.7Z" transform="translate(-172.338 -355.007)" fill="#fff"/>
          </g>
        </g>
        <g id="Group_85" data-name="Group 85" opacity="0.64">
          <ellipse id="Ellipse_9" data-name="Ellipse 9" cx="9.138" cy="9.34" rx="9.138" ry="9.34" transform="translate(201.981 104.884)" fill="#d5010b"/>
          <g id="Group_84" data-name="Group 84">
            <rect id="Rectangle_100" data-name="Rectangle 100" width="4.004" height="6.488" rx="0.674" transform="translate(217.421 118.379) rotate(180)" fill="#fff"/>
            <path id="Path_122" data-name="Path 122" d="M205.54,111.7h2.845a.556.556,0,0,0,.55-.562v-.5l0-.07.083-1.064a.874.874,0,0,1,.863-.814h0a.875.875,0,0,1,.866.885v1.016a.9.9,0,0,0,.138.479l.24.406a1.783,1.783,0,0,0,.469.524c.307.228.753.564.753.564a.738.738,0,0,1,.288.588v3.113a.741.741,0,0,1-.29.591l-.56.426a.707.707,0,0,1-.43.146h-4.733a.72.72,0,0,1-.41-.13.875.875,0,0,1-.412-.98.77.77,0,0,0-.176-.69.874.874,0,0,1-.206-.72.849.849,0,0,0-.145-.642.949.949,0,0,1-.181-.809.751.751,0,0,0-.14-.594A.737.737,0,0,1,205.54,111.7Z" fill="#fff"/>
          </g>
        </g>
        <g id="Group_87" data-name="Group 87" opacity="0.64">
          <ellipse id="Ellipse_10" data-name="Ellipse 10" cx="9.138" cy="9.34" rx="9.138" ry="9.34" transform="translate(400.599 176.421)" fill="#d5010b"/>
          <g id="Group_86" data-name="Group 86">
            <rect id="Rectangle_101" data-name="Rectangle 101" width="4.004" height="6.488" rx="0.674" transform="translate(403.436 183.428)" fill="#fff"/>
            <path id="Path_123" data-name="Path 123" d="M415.317,183.236h-2.845a.556.556,0,0,1-.55-.563v-.5l0-.07-.083-1.063a.874.874,0,0,0-.863-.815h0a.876.876,0,0,0-.866.886v1.016a.893.893,0,0,1-.138.478l-.24.407a1.779,1.779,0,0,1-.469.523l-.753.564a.74.74,0,0,0-.289.589V187.8a.741.741,0,0,0,.291.59l.56.426a.707.707,0,0,0,.43.146h4.733a.72.72,0,0,0,.41-.13.875.875,0,0,0,.412-.98.77.77,0,0,1,.175-.689.873.873,0,0,0,.207-.72.844.844,0,0,1,.145-.642.955.955,0,0,0,.181-.81.749.749,0,0,1,.14-.593A.737.737,0,0,0,415.317,183.236Z" fill="#fff"/>
          </g>
        </g>
      </g>
    </g>
  </g>
</svg>
